# xmcd CD database file
#
# Track frame offsets:
#	150
#	29288
#	115810
#	123849
#	142703
#	149706
#	218158
#
# Disc length: 4250 seconds
#
# Revision: 0
# Processed by: cddbd v1.5.1PL0 Copyright (c) Steve Scherf et al.
# Submitted via: CDex 1.50
#
DISCID=61109807
DTITLE=Charles Mingus - Odd Fellow (early show)
DYEAR=1964
DGENRE=Jazz
TTITLE0=intro
TTITLE1=So Long Eric
TTITLE2=intro
TTITLE3=AT FW USA
TTITLE4=intro
TTITLE5=Orange Was the Color Of Her Dress, Then Blue Silk
TTITLE6=Meditations
EXTD=YEAR: 1964
EXTT0=
EXTT1=
EXTT2=
EXTT3=
EXTT4=
EXTT5=
EXTT6=
PLAYORDER=
